<?xml version="1.0" standalone="no"?>
<!DOCTYPE svg PUBLIC "-//W3C//DTD SVG 20010904//EN"
 "http://www.w3.org/TR/2001/REC-SVG-20010904/DTD/svg10.dtd">
<svg version="1.0" xmlns="http://www.w3.org/2000/svg"
 width="300.000000pt" height="316.000000pt" viewBox="0 0 300.000000 316.000000"
 preserveAspectRatio="xMidYMid meet">
<metadata>
Created by potrace 1.10, written by Peter Selinger 2001-2011
</metadata>
<g transform="translate(0.000000,316.000000) scale(0.100000,-0.100000)"
fill="#000000" stroke="none">
<path d="M1290 2610 c-222 -47 -391 -141 -545 -302 -118 -122 -189 -237 -242
-393 -70 -206 -70 -464 0 -670 53 -156 124 -271 242 -393 203 -212 461 -322
755 -322 294 0 552 110 755 322 118 122 189 237 242 393 89 261 66 560 -62
815 -95 190 -270 364 -461 459 -209 104 -465 138 -684 91z m415 -29 c200 -42
365 -130 511 -275 140 -140 223 -283 276 -474 18 -65 22 -104 22 -252 0 -192
-11 -253 -74 -403 -98 -235 -324 -455 -565 -548 -237 -92 -513 -92 -750 0
-241 93 -467 313 -565 548 -63 150 -74 211 -74 403 0 192 11 253 74 403 98
235 324 455 565 548 177 69 397 88 580 50z"/>
<path d="M1319 2455 c-159 -32 -329 -124 -449 -245 -350 -349 -348 -915 5
-1266 71 -70 228 -177 253 -172 10 2 152 286 152 304 0 2 -6 4 -13 4 -28 0
-158 102 -196 153 -65 88 -133 249 -116 277 3 5 25 10 48 10 23 1 98 7 167 14
69 7 126 12 128 11 1 -1 -1 -22 -4 -47 l-6 -45 -61 -7 c-33 -3 -75 -6 -93 -6
-42 0 -42 -10 -5 -76 37 -64 126 -146 185 -170 l46 -19 0 -72 c0 -69 -4 -81
-69 -223 -40 -87 -65 -152 -60 -156 6 -3 13 -4 15 -1 3 3 37 71 75 153 69 147
69 148 69 234 l0 87 -37 11 c-21 7 -49 21 -63 31 l-24 19 24 22 c14 12 50 33
80 48 45 22 69 27 130 27 61 0 85 -5 130 -27 30 -15 66 -36 80 -48 l24 -22
-24 -19 c-31 -24 -141 -59 -186 -59 l-34 0 0 -79 c0 -75 -2 -83 -65 -217 -36
-76 -70 -147 -76 -157 -6 -11 -7 -22 -4 -25 9 -9 321 -9 330 -1 3 4 -32 79
-79 166 -80 150 -86 164 -86 220 l0 60 66 12 c166 30 296 151 339 316 8 33 15
64 15 70 0 7 -50 15 -132 22 -73 6 -133 10 -134 9 -1 0 3 -35 9 -77 l10 -77
45 -6 c74 -10 102 -8 102 9 0 11 -11 15 -37 15 -70 0 -81 8 -89 57 -3 24 -5
45 -3 47 4 3 192 -15 197 -19 1 -1 -6 -29 -16 -62 -19 -61 -62 -132 -100 -167
-21 -18 -22 -18 -70 17 -27 20 -61 41 -75 46 l-27 11 0 149 0 149 28 10 c48
17 110 70 137 117 15 25 31 43 35 40 13 -8 58 -89 65 -118 7 -28 19 -35 30
-17 12 19 -43 119 -95 174 -116 123 -282 163 -455 111 -17 -5 -23 2 -40 45
-11 28 -19 55 -18 58 4 18 115 41 199 41 212 2 399 -111 492 -298 23 -45 44
-97 48 -116 6 -34 34 -50 34 -20 0 24 -45 140 -74 190 -39 66 -131 155 -202
195 -32 18 -61 35 -63 36 -5 4 29 96 39 108 15 16 154 -76 230 -153 214 -216
263 -547 121 -818 -37 -70 -42 -93 -23 -93 14 0 80 134 104 210 20 64 23 96
23 215 -1 125 -4 149 -28 220 -38 115 -91 199 -182 290 -91 91 -175 144 -290
182 -72 25 -94 27 -225 27 -132 0 -153 -2 -227 -27 -76 -26 -95 -38 -75 -50 4
-3 41 6 82 20 103 35 259 43 376 18 46 -10 84 -21 84 -25 0 -8 -39 -102 -44
-107 -2 -2 -32 4 -67 13 -85 22 -230 14 -316 -16 -35 -12 -63 -23 -63 -25 0
-1 14 -33 31 -70 16 -37 29 -68 27 -69 -2 -2 -19 -12 -39 -24 -52 -31 -125
-113 -151 -169 -12 -26 -23 -49 -23 -50 0 0 -30 -4 -67 -8 l-68 -7 15 42 c26
75 79 162 125 210 l46 47 -24 29 c-14 16 -41 47 -60 68 l-35 40 -61 -65 c-75
-80 -128 -169 -163 -274 -25 -72 -27 -94 -27 -225 0 -131 2 -153 27 -225 14
-44 43 -109 64 -145 47 -80 199 -238 214 -223 7 7 -15 36 -73 94 -140 141
-208 303 -208 499 0 172 63 342 171 464 50 56 52 56 71 39 11 -10 29 -30 40
-46 l20 -27 -40 -48 c-22 -26 -53 -72 -70 -102 -32 -59 -69 -166 -60 -175 3
-3 46 -3 96 1 l90 7 11 36 c6 20 28 58 49 86 106 139 278 197 440 147 54 -17
143 -69 157 -92 16 -25 -77 -131 -145 -166 -22 -11 -66 -19 -115 -22 -98 -5
-161 17 -221 79 -38 39 -39 41 -19 56 24 18 89 47 126 56 25 6 26 5 25 -34 0
-32 5 -45 23 -60 48 -39 115 -14 127 48 5 26 1 37 -21 59 -26 26 -30 27 -102
21 -80 -6 -181 -46 -217 -86 -17 -19 -17 -21 4 -50 26 -33 94 -85 128 -95 22
-7 22 -11 22 -157 l0 -149 -27 -11 c-14 -5 -48 -26 -75 -46 -48 -35 -49 -35
-70 -17 -25 23 -81 104 -76 110 2 2 43 7 90 10 l86 7 4 76 c3 42 4 77 3 78 0
1 -88 -7 -195 -17 -107 -11 -198 -20 -202 -20 -23 0 11 -131 58 -227 40 -82
132 -184 208 -228 26 -15 46 -31 44 -35 -33 -80 -115 -240 -124 -240 -6 0 -45
22 -85 48 -457 299 -525 940 -141 1329 334 339 890 339 1224 0 334 -340 333
-880 -3 -1216 -52 -53 -167 -141 -183 -141 -2 0 -18 25 -34 55 l-30 55 56 39
c67 45 96 76 88 90 -4 6 -30 -8 -63 -35 -31 -25 -71 -53 -89 -61 l-33 -16 34
-66 c58 -115 50 -111 136 -56 468 303 536 978 139 1375 -123 124 -291 214
-457 246 -91 17 -264 17 -354 -1z m222 -596 c8 -16 8 -28 0 -45 -15 -34 -67
-34 -82 0 -16 35 3 66 41 66 20 0 33 -7 41 -21z m39 -339 l0 -135 -80 0 -80 0
0 135 0 135 80 0 80 0 0 -135z m51 -777 c6 -6 6 -13 2 -16 -9 -6 -110 -10
-195 -8 l-58 1 24 53 c13 28 40 88 61 131 l36 80 61 -115 c33 -62 64 -119 69
-126z"/>
<path d="M2042 1478 c-17 -94 -83 -219 -152 -288 -54 -54 -199 -140 -236 -140
-8 0 -14 -2 -14 -4 0 -12 164 -306 170 -306 22 0 13 25 -55 149 l-73 135 80
39 c165 82 286 250 313 432 6 36 4 45 -7 45 -10 0 -18 -20 -26 -62z"/>
</g>
</svg>
